<?xml version="1.0" encoding="utf-8"?>
<!-- Generator: Adobe Illustrator 26.2.1, SVG Export Plug-In . SVG Version: 6.00 Build 0)  -->
<svg version="1.1" id="Group_24" xmlns="http://www.w3.org/2000/svg" xmlns:xlink="http://www.w3.org/1999/xlink" x="0px" y="0px"
	 viewBox="0 0 76 77.2" style="enable-background:new 0 0 76 77.2;" xml:space="preserve">
<style type="text/css">
	.st0{fill:#FFFFFF;}
	.st1{fill:#F5CB3C;}
</style>
<g>
	<g id="Group_23">
		<path id="Path_164" class="st0" d="M14,46.4c0-0.5,0-1.1-0.3-1.6c-0.2-0.3-0.4-0.3-0.7-0.1c-0.1,0.1-0.1,0-0.1-0.2
			c0-0.1,0-0.2,0.1-0.3c0.1-0.1,0.2-0.2,0.3-0.3l0.7-0.6c0.2-0.1,0.3-0.3,0.4-0.4c0.2-0.2,0.5-0.5,0.8-0.8c0.4-0.4,0.7-0.7,1.1-1.1
			c1.1-0.9,2-0.8,2.6,0.3c1,1.7,1,3.8,1,5.6c0.1,3-0.4,5.9-1.3,8.7c-0.6,1.7-1.4,2.7-2.2,3c-0.3,0.1-0.5,0.2-0.8,0.2
			c-0.2,0.1-0.5,0.1-0.7,0.2c-0.4,0.1-0.8,0.3-1.1,0.6c-0.1,0.1-0.2,0.2-0.3,0.2c-0.1,0-0.1-0.1-0.1-0.3c0-0.1,0-0.3,0.1-0.3
			c0.2-0.2,0.4-0.5,0.4-0.8c0.1-0.5,0.1-1.1,0.1-1.7L14,46.4z M15.1,45v10.8c0,0.4,0,0.7,0.1,1.1c0.1,0.9,0.5,1.2,1.2,0.9
			c0.7-0.3,1.3-1.2,1.8-2.8c0.5-2,0.7-4.1,0.6-6.1c0.1-1.9-0.2-3.9-0.8-5.7c-0.5-1.2-1.2-1.4-2-0.8c-0.3,0.2-0.5,0.5-0.7,0.9
			C15.2,43.8,15.1,44.4,15.1,45"/>
		<path id="Path_165" class="st0" d="M23.8,37.1c0.8,4.9,1.5,9.7,2.2,14.6c0.1,0.6,0.2,1.1,0.4,1.7c0.1,0.3,0.3,0.5,0.6,0.6
			c0.1,0,0.1,0.1,0.1,0.4c0,0.3,0,0.4-0.1,0.5c-0.1,0-0.1,0-0.2,0c-0.4-0.1-0.8,0-1.2,0.2c-0.4,0.1-0.8,0.4-1.1,0.7
			c0,0-0.1,0.1-0.1,0.1c-0.1,0-0.1-0.1-0.1-0.4c0-0.1,0-0.3,0.1-0.4c0.2-0.3,0.3-0.6,0.4-0.9c0.1-0.4,0.1-0.8,0.2-1.2
			c-0.1-1.2-0.2-2.4-0.4-3.5c-0.1-0.5-0.2-0.8-0.3-0.9c-0.4,0.1-0.8,0.2-1.1,0.5l-0.6,0.3l-0.4,0.5c-0.2,0.7-0.3,1.4-0.4,2.1
			c-0.1,0.5-0.1,0.7-0.1,1.2c0,0.3-0.1,0.7-0.1,1c0,1.2,0.3,1.8,0.8,1.7c0.1,0,0.2,0.1,0.2,0.4c0,0.3-0.1,0.4-0.2,0.4
			c-0.1,0-0.2,0-0.2,0c-0.2,0-0.4,0-0.6,0c-0.3,0.1-0.5,0.3-0.7,0.4c-0.1,0.1-0.3,0.2-0.5,0.3c-0.1,0-0.1-0.1-0.1-0.3
			c0-0.2,0-0.3,0.1-0.5c0.2-0.3,0.3-0.7,0.4-1c0.1-0.5,0.3-1.4,0.5-2.9c0.4-3.2,0.9-6.5,1.3-9.7c0.1-0.8,0.2-1.3,0.2-1.6
			c0.2-1.2,0.3-1.9,0.4-3.1c0.1-0.6,0.1-0.9,0.2-1.6v0c0-0.4,0.1-0.9,0.2-1.3c0.1,0,0.1,0.3,0.3,1L23.8,37.1 M24,46.3
			c-0.2-1.4-0.4-2.8-0.6-4.2c-0.1-1-0.3-1.4-0.3-1.4c-0.1,0.4-0.2,0.8-0.2,1.2c0,0.3-0.1,0.4-0.1,0.7c-0.2,1.4-0.4,2.8-0.6,4.2
			c0,0.2,0,0.2-0.1,0.4c0,0.1,0,0.3,0,0.4c0,0.3,0.1,0.4,0.3,0.3l1.4-0.8c0.1-0.1,0.2-0.3,0.2-0.4c0-0.1,0-0.2,0-0.2
			C24,46.4,24,46.4,24,46.3"/>
		<path id="Path_166" class="st0" d="M29.5,47.1c0,1.4,0,2.8,0.2,4.2c0.1,0.7,0.3,1,0.7,1c0.1,0,0.2,0.1,0.2,0.5s-0.1,0.5-0.2,0.5
			c-0.1,0-0.1,0-0.2,0c-0.3,0-0.5,0.1-0.8,0.2c-0.2,0.1-0.4,0.2-0.6,0.3l-0.4,0.3l-0.3,0.2c-0.1,0-0.1,0.1-0.2,0.1
			c-0.1,0-0.2-0.1-0.2-0.4c0-0.2,0-0.3,0.1-0.5c0.2-0.3,0.4-0.7,0.4-1.1c0.1-0.6,0.1-1.2,0.1-1.8v-1.5c0-0.3,0-0.4,0-0.6
			c0-3.9,0-7.9,0-11.8c0-0.8,0-1.7-0.1-2.5c-0.2-0.6-0.4-0.8-0.8-0.7c-0.1,0-0.2-0.1-0.2-0.4s0-0.5,0.1-0.6c0.1,0,0.1-0.1,0.2-0.1
			c0.3-0.1,0.6-0.3,0.8-0.5c0.4-0.3,0.8-0.7,1.2-1.1c0.3-0.4,0.7-0.8,1.1-1.1c0.6-0.5,1.1-0.3,1.5,0.6c0.5,1.3,0.7,2.7,0.6,4.1
			c0,1.1-0.1,2.2-0.3,3.4c-0.1,0.9-0.4,1.8-0.7,2.6c-0.1,0.1-0.1,0.3-0.1,0.4c0,0.1,0,0.3,0,0.4c0,0.1,0.1,0.4,0.1,0.7
			c0.2,1,0.3,1.5,0.4,2.5c0.2,1.2,0.3,1.8,0.5,3c0.1,0.7,0.2,1.4,0.5,2.1c0.1,0.4,0.3,0.5,0.5,0.4c0.1,0,0.1-0.1,0.2-0.2
			c0,0,0.1-0.1,0.1-0.1c0.1,0,0.1,0.1,0.1,0.4c0,0.5-0.2,0.9-0.4,1.3c-0.3,0.5-0.5,0.9-0.7,0.9c-0.3,0.1-0.6-0.4-0.9-1.4
			c-0.5-2-0.8-4.1-1.1-6.1c-0.1-0.7-0.2-1.5-0.4-2.2c0-0.2-0.2-0.3-0.4-0.3c-0.1,0-0.1,0-0.2,0.1l-0.3,0.2l-0.2,0.3
			c-0.1,0.3-0.1,0.6-0.1,0.8L29.5,47.1 M29.5,34.1v5.8c0,0.4,0,0.9,0.1,1.3c0.1,0.2,0.2,0.2,0.4,0.1c0.4-0.2,0.7-0.5,1.1-0.8
			c0.2-0.3,0.3-0.6,0.4-0.9c0.3-1.1,0.4-2.2,0.3-3.4c0.1-1.3-0.1-2.7-0.5-4c-0.3-0.9-0.7-1.1-1.2-0.8c-0.2,0.2-0.4,0.5-0.4,0.8
			C29.5,32.9,29.5,33.5,29.5,34.1"/>
		<path id="Path_167" class="st0" d="M39.4,22.7c0,0,0.1,0,0.1,0c0,0,0.2-0.3,0.4-0.1l0.5,0.5l0.5,0.3c0.1,0.1,0.3,0.1,0.4,0.2
			c0.1,0,0.1,0,0.2,0.1c0.1,0.1,0.1,0.3,0.1,0.6c0,0.3,0,0.4-0.1,0.4l-0.2,0c-0.2,0-0.4,1-0.4,3c0,0.7,0,1,0,1.7c0,1,0,1.4,0,2.4
			c0,3,0,6-0.1,9c0,1.7-0.2,3.4-0.4,5.1c-0.3,1.6-0.8,4.4-2.4,5.1c-0.8,0.3-1.5-0.1-1.9-1.1c-1.1-2.7-0.9-6-0.9-8.9
			c0-2.4,0-4.7,0.1-7.1c0-1.3,0-2,0-3.3c0-0.6,0-1.1-0.1-1.7c0-0.2-0.1-0.5-0.3-0.7c-0.1-0.1-0.3-0.2-0.5-0.2
			c-0.1,0-0.2-0.1-0.2-0.4c0-0.3,0.1-0.5,0.2-0.6c0.1,0,0.1-0.1,0.2-0.1c0.3-0.1,0.6-0.3,0.9-0.5c0.4-0.3,0.7-0.7,1-1
			c0.1-0.1,0.2-0.2,0.3-0.3c0.2-0.1,0.2,0,0.2,0.4c0,0.2,0,0.3,0,0.5c0,0.1-0.1,0.3-0.2,0.4c-0.2,0.4-0.3,0.7-0.4,1.2
			c-0.1,0.8-0.1,1.7-0.1,2.5l-0.1,4.8c0,1.3,0,2,0,3.3c0,2.1,0,4.3,0.1,6.4c0,1,0.2,2.1,0.5,3.1c0.4,1.2,0.9,1.7,1.5,1.5
			s1.1-1.2,1.5-2.9c0.3-1.4,0.5-2.8,0.5-4.2c0.2-2.7,0.2-5.5,0.2-8.2v-1.6c0-1.6,0-2.4,0-4c0-1-0.1-2-0.3-3c-0.2-0.8-0.4-1.2-0.7-1
			c-0.1,0.1-0.2,0-0.2-0.4C39.2,23.1,39.3,22.9,39.4,22.7"/>
		<path id="Path_168" class="st0" d="M45,30.9c0.8,4.1,1.7,8.1,2.5,12.2c0.1,0.3,0.1,0.5,0.2,0.8c0.1,0.5,0.2,1.1,0.4,1.5
			c0.1,0,0.1-0.3,0.1-1c0-2.4,0-4.8,0-7.2c0.1-1.9,0-3.8-0.2-5.6c-0.1-0.8-0.4-1.6-0.9-2.3c-0.1-0.2-0.2-0.3-0.2-0.5
			c0-0.3,0-0.4,0.1-0.4c0.2,0.2,0.4,0.4,0.6,0.6c0.1,0.2,0.3,0.3,0.4,0.4c0.3,0.2,0.7,0.4,1,0.5c0,0,0.1,0,0.1,0.1
			c0.1,0.1,0.2,0.3,0.2,0.6c0,0.3-0.1,0.4-0.2,0.4c-0.4-0.1-0.6,1.1-0.6,3.4v0.8c0,3.5,0,7.1-0.1,10.6c0,0.6,0,0.9,0,1.5
			c0,0.8,0,1.1,0,1.9c0,0.5,0,0.8,0,1.3c0,0.9,0,1.3,0,2.1c0,0.3,0,0.5-0.1,0.4s-0.1-0.2-0.2-0.4c-1.5-6.8-3-13.6-4.3-20.4
			c0-0.2-0.1-0.4-0.2-0.6c-0.1-0.1-0.1,0.2-0.1,0.8c0,0.2,0,0.3,0,0.5v7.2c0,2.6,0,5.2,0.1,7.8c0.1,1.4,0.4,2.3,0.9,2.7
			c0.1,0.1,0.1,0.2,0.1,0.5c0,0.4,0,0.5-0.1,0.5c-0.1,0-0.1-0.1-0.2-0.1c-0.2-0.3-0.6-0.5-0.9-0.6c-0.3-0.1-0.6-0.1-0.9-0.1
			c-0.1,0-0.2,0-0.2,0c-0.1,0-0.1-0.2-0.1-0.5c0-0.3,0-0.4,0.1-0.5c0.3-0.4,0.5-0.9,0.5-1.4c0.1-1.1,0.2-2.3,0.2-3.4
			c0-1.5,0-2.9,0-4.4v-8.1c0-2.1,0.2-5-1.1-6.9c-0.1-0.2-0.2-0.4-0.1-0.6c0-0.4,0.1-0.5,0.2-0.4l0.3,0.3l0.2,0.1
			c0.2,0.2,0.5,0.4,0.8,0.5c0.1,0,0.2,0.1,0.3,0.2c0.1,0.1,0.2,0.3,0.2,0.4c0.1,0.2,0.2,0.8,0.4,1.8c0.1,0.7,0.2,1,0.3,1.7
			S45,30.8,45,30.9"/>
		<path id="Path_169" class="st0" d="M52.2,36.2v3.5c0,0.6,0,1.3,0.1,1.9c0,0.2,0.1,0.5,0.3,0.6l0.1,0.1l0.2,0.1l0.4,0.3
			c0.3,0.2,0.6-0.2,0.7-1.2l0.1-0.7c0-0.2,0.1-0.2,0.1-0.2s0.1,0.2,0.1,0.5c0,0.1,0,0.3,0,0.7c0,0.3,0,0.5,0,0.7c0,0.3,0,1.1,0,2.3
			c0,0.8,0,1.5,0,2.1v0.8c0,0.1,0,0.2,0,0.3c0,0.1,0,0.1-0.1,0.1c-0.1,0-0.1-0.2-0.1-0.7c0-0.7-0.1-1.4-0.3-2.2
			c-0.1-0.2-0.2-0.5-0.3-0.7c-0.2-0.2-0.4-0.4-0.7-0.5l-0.3-0.2c-0.2-0.1-0.3-0.1-0.3,0c-0.1,0.3-0.1,0.6-0.1,0.9c0,0.5,0,1.4,0,2.5
			v1.4c0,1.5,0,2.6,0.1,3.3c0,0.4,0.1,0.7,0.2,1.1c0.1,0.2,0.2,0.3,0.3,0.4c1.6,0.7,2.4-1.5,2.5-2.7c0-0.1,0-0.2,0.1-0.2
			c0,0,0.1,0,0.1,0.1c0,0.1,0,0.2,0,0.3c0,0.9-0.1,1.8-0.3,2.8c-0.1,0.5-0.2,1-0.5,1.5c-0.2,0.3-0.5,0.3-0.8,0.2
			c-0.2-0.1-0.5-0.2-0.7-0.4l-0.6-0.4c-0.3-0.2-0.5-0.3-0.8-0.4c-0.3-0.1-0.7-0.2-1.1-0.3c-0.1,0-0.2,0-0.3-0.1
			c-0.1,0-0.1-0.2-0.1-0.4c0-0.1,0-0.3,0.1-0.4c0.2-0.2,0.3-0.4,0.4-0.6c0.1-0.4,0.1-0.9,0.2-1.4c0-0.6,0.1-1.3,0.1-2.3V35.8
			c0-0.9,0-1.7-0.2-2.6c-0.1-0.5-0.4-1.1-0.7-1.5c-0.1-0.2-0.1-0.4-0.1-0.6c0-0.3,0.1-0.3,0.2-0.3c0,0,0.1,0.1,0.1,0.1
			c0.1,0.1,0.2,0.1,0.2,0.2l0.5,0.5l1.8,1.5c0.6,0.5,1.2,1,1.9,1.4c0,0,0,0,0.1,0c0.1,0.1,0.1,0.3,0.1,0.6c0,0.2,0,0.7,0,1.3
			c0,0.9,0,1.5,0,1.9c0,0.8-0.1,1.1-0.2,1c-0.1,0-0.1-0.3-0.1-0.7c0-0.8-0.1-1.7-0.3-2.5c-0.2-0.6-0.6-1.2-1.1-1.6l-0.6-0.5
			l-0.3-0.1c-0.2,0-0.2,0.5-0.2,1.4C52.2,35.9,52.2,36,52.2,36.2"/>
		<path id="Path_170" class="st0" d="M58.4,40.7v3.1c0,0.6,0,1.1,0.1,1.7c0,0.2,0.1,0.4,0.3,0.5l0.1,0.1l0.2,0.1l0.4,0.3
			c0.3,0.2,0.6-0.2,0.7-1c0-0.2,0.1-0.4,0.1-0.6c0-0.1,0.1-0.2,0.1-0.2s0.1,0.2,0.1,0.4c0,0.1,0,0.3,0,0.6c0,0.2,0,0.4,0,0.6
			c0,0.3,0,1,0,2.1c0,0.7,0,1.3,0,1.8c0,0.3,0,0.4,0,0.7c0,0.1,0,0.2,0,0.2c0,0,0,0.1-0.1,0.1c-0.1,0-0.1-0.2-0.1-0.6
			c0-0.6-0.1-1.3-0.3-1.9c-0.1-0.2-0.2-0.4-0.3-0.6c-0.2-0.2-0.4-0.4-0.7-0.5l-0.3-0.2c-0.2-0.1-0.3-0.1-0.3,0
			c-0.1,0.2-0.1,0.5-0.1,0.8c0,0.5,0,1.2,0,2.2v1.3c0,1,0,1.9,0.1,2.9c0,0.3,0.1,0.6,0.2,0.9c0.1,0.2,0.2,0.3,0.3,0.4
			c1.3,0.5,2.1-0.2,2.5-2.2c0-0.1,0-0.1,0.1-0.1c0,0,0.1,0,0.1,0.1c0,0.1,0,0.2,0,0.3c0,0.8-0.1,1.6-0.3,2.4
			c-0.1,0.5-0.2,0.9-0.5,1.3c-0.2,0.2-0.6,0.3-0.8,0.1c-0.2-0.1-0.5-0.2-0.7-0.4L58.9,57c-0.3-0.2-0.5-0.3-0.8-0.4
			c-0.3-0.1-0.7-0.2-1.1-0.3c-0.1,0-0.2,0-0.3-0.1c-0.1,0-0.1-0.2-0.1-0.4c0-0.1,0-0.3,0.1-0.4c0.2-0.1,0.3-0.3,0.4-0.5
			c0.1-0.4,0.1-0.8,0.2-1.2c0-0.5,0.1-1.2,0.1-2.1c0-3.8,0-7.6,0-11.5c0-0.8,0-1.6-0.2-2.3c-0.1-0.5-0.4-1-0.7-1.4
			c-0.1-0.2-0.1-0.3-0.1-0.5c0-0.2,0.1-0.3,0.2-0.2c0,0,0.1,0.1,0.1,0.1c0.1,0.1,0.2,0.1,0.2,0.2l0.5,0.4l1.8,1.5
			c0.6,0.5,1.2,1,1.9,1.4c0,0,0,0,0.1,0c0.1,0.1,0.1,0.3,0.1,0.6c0,0.2,0,0.6,0,1.1c0,0.8,0,1.4,0,1.7c0,0.7-0.1,1-0.2,0.9
			c-0.1,0-0.1-0.3-0.1-0.7c0-0.7-0.1-1.5-0.3-2.2c-0.2-0.6-0.6-1.1-1.1-1.5l-0.6-0.5l-0.3-0.1c-0.2,0-0.2,0.4-0.2,1.2
			C58.4,40.4,58.4,40.5,58.4,40.7"/>
		<path id="Path_171" class="st0" d="M64.4,42c0.4,0.3,0.7,0.7,0.9,1.1l0.3,0.6c0.1,0.2,0.2,0.3,0.3,0.5c0,0,0.1,0,0.1,0l0.2-0.1
			c0,0,0.1,0,0.1,0c0.1,0.1,0.1,0.2,0.1,0.5c0,0.4,0,0.6,0,0.9c0,0.1,0,0.3,0,0.4c0,0.5,0,0.7,0.1,1.2c0,0.4,0,0.7,0,1.1
			c0,0.1,0,0.2,0,0.2c0,0.3,0,0.5-0.1,0.4c-0.1,0-0.1-0.2-0.1-0.5c-0.1-1.1-0.3-2.3-0.7-3.4c-0.2-0.8-0.6-1.5-1.2-2.1
			c-0.3-0.2-0.5-0.2-0.7,0.2c-0.2,0.5-0.4,1-0.3,1.6c0,0.6,0.1,1.3,0.3,1.9c0.3,0.8,0.7,1.5,1.1,2.2c0.6,1,1.1,2.1,1.5,3.2
			c0.3,1.1,0.4,2.3,0.4,3.4c0,1.1-0.2,2.2-0.6,3.3c-0.4,0.9-0.9,1.2-1.4,1c-0.4-0.3-0.8-0.6-1-1c-0.2-0.2-0.3-0.4-0.5-0.6
			C63,58,63,57.8,62.9,57.7c0-0.2-0.1-0.5-0.1-0.7c0-0.4-0.1-1-0.1-1.8c-0.1-1.2-0.2-2-0.2-2.3c0-0.4,0-0.6,0.1-0.5
			c0,0,0.1,0.1,0.1,0.4c0.1,1.4,0.4,2.7,0.8,4.1c0.4,1.1,0.8,1.8,1.2,2c0.3,0.1,0.6-0.1,0.9-0.6c0.3-0.6,0.4-1.3,0.4-1.9
			c0-0.6-0.1-1.1-0.2-1.6c-0.2-0.5-0.4-1-0.7-1.5c-0.3-0.5-0.4-0.7-0.7-1.2c-0.6-1-1.1-2-1.4-3.1c-0.3-1-0.4-2.1-0.4-3.2
			c-0.1-1.1,0.1-2.2,0.5-3.2C63.5,41.7,63.9,41.6,64.4,42"/>
		<path id="Path_172" class="st0" d="M15.7,64.5v6.9c0,0.7,0,1.5,0.2,2.2c0.1,0.4,0.3,0.7,0.6,0.7c0.1,0,0.1,0.1,0.1,0.3
			c0,0.1,0,0.2-0.1,0.2c0,0-0.1,0-0.1,0l-0.3,0l-0.4-0.1c0,0-0.1,0-0.1,0c-0.1,0-0.2,0-0.4,0l-0.8,0.1c-0.1,0-0.1,0-0.2,0
			c-0.1,0-0.1-0.1-0.1-0.2c0-0.1,0-0.2,0-0.3c0,0,0.1-0.1,0.1-0.1c0.2,0,0.3-0.2,0.4-0.5c0.1-0.4,0.2-0.8,0.1-1.3c0-0.2,0-0.3,0-0.4
			v-8c0-0.5-0.1-0.7-0.3-0.6c-0.4,0.1-0.7,0.3-1,0.5c-0.1,0.1-0.2,0.3-0.2,0.5c0,0.2-0.1,0.6-0.2,1.2c0,0.1,0,0.1,0,0.2
			c0,0.2-0.1,0.4-0.1,0.4c-0.1,0-0.1-0.1-0.1-0.2c0-0.2,0-0.4,0-0.7l0-0.8c0-0.3,0-0.5,0-0.8c0-0.2,0-0.3,0-0.5s0.1-0.4,0.1-0.4
			c0,0,0.1,0,0.1,0c0.1,0,0.3-0.1,0.4-0.1l0.7-0.2l0.9-0.2c0.6-0.2,1.2-0.4,1.7-0.7c0.1-0.1,0.2-0.1,0.2-0.1c0.1,0,0.2,0.1,0.2,0.4
			c0,0.3,0,0.4,0,0.7c0,0.1,0,0.4,0,0.8c0,0.3,0,0.6,0,0.8s0,0.3-0.1,0.3s-0.1-0.1-0.1-0.3c0-0.4-0.1-0.8-0.3-1.2
			c-0.1-0.2-0.4-0.3-0.6-0.2c-0.3,0-0.5,0.2-0.7,0.4C15.7,63.7,15.6,64.1,15.7,64.5"/>
		<path id="Path_173" class="st0" d="M21.5,67.7l-1.7,0.3c-0.1,0-0.3,0.1-0.3,0.2c-0.1,0.3-0.1,0.7-0.1,1v2.5c0,0.7,0,1.4,0.2,2
			c0.1,0.4,0.3,0.6,0.5,0.6c0.1,0,0.1,0.1,0.1,0.3c0,0.2-0.1,0.3-0.2,0.3c-0.1,0-0.2,0-0.2-0.1c-0.2-0.1-0.5-0.1-0.8-0.1
			c-0.2,0-0.4,0-0.6,0.1c-0.1,0-0.2,0.1-0.3,0.1c-0.1,0-0.1-0.1-0.1-0.3c0-0.1,0-0.2,0.1-0.2c0.2-0.1,0.3-0.3,0.3-0.6
			c0.1-0.5,0.1-1,0.1-1.5c0-0.2,0-0.3,0-0.5v-8.2c0-0.3,0-0.7-0.1-1C18.5,62.2,18.3,62,18,62c-0.1,0-0.1-0.1-0.1-0.3
			c0-0.2,0-0.3,0.1-0.3c0.1,0,0.2,0,0.2,0c0.2,0,0.5,0,0.7-0.1c0.2-0.1,0.4-0.2,0.6-0.3c0.1-0.1,0.2-0.1,0.4-0.2
			c0.1,0,0.1,0.1,0.1,0.2c0,0.1,0,0.2-0.1,0.3c-0.3,0.2-0.4,0.8-0.4,1.6v2.6c0,0.4,0,0.8,0.1,1.2c0,0.1,0.1,0.1,0.3,0.1l1.6-0.3
			c0.1,0,0.3-0.2,0.3-0.3c0-0.5,0.1-1,0-1.4v-2.3c0-0.9-0.2-1.4-0.5-1.5l-0.2,0c-0.1,0-0.1-0.1-0.1-0.3c0-0.2,0-0.3,0.1-0.3
			c0.1,0,0.2,0,0.2,0c0.2,0,0.5,0,0.7-0.1c0.2-0.1,0.4-0.2,0.6-0.3c0.1-0.1,0.2-0.1,0.4-0.2c0.1,0,0.1,0.1,0.1,0.3
			c0,0.1,0,0.2-0.1,0.3c-0.3,0.2-0.4,0.8-0.4,1.7v9.2c0,0.7,0,1.5,0.2,2.2c0.1,0.4,0.3,0.7,0.5,0.7c0.1,0,0.1,0.1,0.1,0.3
			c0,0.2-0.1,0.3-0.2,0.3c-0.1,0-0.2,0-0.2-0.1c-0.2-0.1-0.5-0.1-0.8-0.1c-0.2,0-0.4,0.1-0.6,0.1c-0.1,0-0.2,0.1-0.3,0.1
			c-0.1,0-0.1-0.1-0.1-0.4c0-0.1,0-0.2,0.1-0.3c0.2-0.1,0.3-0.3,0.3-0.7c0.1-0.5,0.1-1.1,0.1-1.6c0-0.2,0-0.3,0-0.6v-2.3
			c0-0.4,0-0.8,0-1.2C21.8,67.7,21.7,67.6,21.5,67.7C21.5,67.7,21.5,67.7,21.5,67.7"/>
		<path id="Path_174" class="st0" d="M26.5,60.2c0.5,4,1.1,8,1.6,12c0,0.5,0.1,0.9,0.3,1.4c0.1,0.2,0.2,0.5,0.4,0.6
			c0,0,0.1,0.1,0.1,0.3c0,0.2,0,0.3-0.1,0.3c0,0-0.1,0-0.1-0.1c-0.3-0.2-0.6-0.2-0.9-0.2c-0.3,0-0.6,0-0.8,0.2c0,0-0.1,0-0.1,0
			c-0.1,0-0.1-0.1-0.1-0.3c0-0.1,0-0.2,0.1-0.3c0.1-0.2,0.2-0.4,0.3-0.6c0.1-0.3,0.1-0.6,0.1-0.9c0-1-0.1-1.9-0.3-2.9
			c0-0.3-0.1-0.5-0.2-0.8c-0.3-0.1-0.5-0.1-0.8,0l-0.5,0.1l-0.3,0.2c-0.2,0.5-0.3,1-0.3,1.5c0,0.3-0.1,0.5-0.1,0.9
			c0,0.2,0,0.5,0,0.8c0,0.9,0.2,1.5,0.6,1.6c0.1,0,0.1,0.1,0.1,0.3c0,0.2,0,0.3-0.1,0.3c-0.1,0-0.1,0-0.2-0.1
			c-0.1-0.1-0.3-0.1-0.4-0.1c-0.2,0-0.4,0.1-0.5,0.1c-0.1,0-0.2,0.1-0.3,0.1c-0.1,0-0.1-0.1-0.1-0.3c0-0.1,0-0.2,0.1-0.3
			c0.2-0.2,0.3-0.4,0.3-0.7c0.1-0.3,0.2-1,0.3-2.1c0.3-2.4,0.6-4.8,1-7.2c0.1-0.6,0.1-1,0.2-1.2c0.1-0.9,0.2-1.4,0.3-2.3
			c0.1-0.5,0.1-0.7,0.2-1.1v0c0-0.3,0.1-0.6,0.2-0.9c0.1,0.3,0.2,0.6,0.2,0.9C26.4,59.8,26.5,60,26.5,60.2 M26.6,67.4
			c-0.2-1.4-0.3-2.1-0.5-3.5c0-0.4-0.1-0.8-0.2-1.2c-0.1,0.3-0.1,0.6-0.2,0.8c0,0.2,0,0.3-0.1,0.5c-0.2,1.3-0.2,1.9-0.4,3.1l0,0.3
			c0,0.1,0,0.2,0,0.3c0,0.3,0.1,0.4,0.3,0.4l1-0.1c0.1,0,0.1-0.1,0.1-0.3c0-0.1,0-0.1,0-0.2L26.6,67.4"/>
		<path id="Path_175" class="st0" d="M30.7,70.9c0,0.5,0,0.8,0,1.3c0,0.5,0.1,1,0.2,1.5c0.1,0.3,0.3,0.5,0.4,0.5
			c0.1,0,0.2,0.1,0.2,0.4c0,0.3-0.1,0.4-0.2,0.4c-0.1,0-0.2,0-0.3-0.1c-0.2-0.1-0.5-0.2-0.7-0.2c-0.2,0-0.4,0-0.6,0.1
			c-0.1,0.1-0.2,0.1-0.3,0.1c-0.1,0-0.1-0.1-0.1-0.3c0,0,0-0.1,0-0.1l0.1-0.3c0.2-0.2,0.3-0.5,0.3-0.8c0.1-0.5,0.1-1,0.1-1.5
			c0-0.4,0-0.7,0-1.1c0-3.3,0-6.6,0-9.8c0-0.5,0-1.1-0.1-1.6c-0.1-0.3-0.2-0.5-0.4-0.5c-0.1,0-0.2-0.1-0.2-0.1
			c0-0.1-0.1-0.2-0.1-0.3c0-0.2,0-0.4,0.1-0.4c0.1,0,0.1,0,0.2,0c0.1,0,0.3,0,0.4,0c0.2-0.1,0.3-0.1,0.5-0.2l0.3-0.2
			c0.2-0.1,0.4-0.2,0.6-0.3c0.1,0,0.1,0.1,0.1,0.3c0,0.1,0,0.2,0,0.3c0,0.1,0,0.1-0.1,0.1c-0.2,0.2-0.3,0.4-0.3,0.6
			c-0.1,0.5-0.1,1-0.1,1.5L30.7,70.9"/>
		<path id="Path_176" class="st0" d="M33.4,57.6c0.5,3.9,1,7.8,1.4,11.6C35,69.7,35,70,35,70s0.1-0.2,0.1-0.6
			c0.4-3.7,0.9-7.5,1.3-11.2c0.1-1.1,0.2-1.8,0.3-2.1s0.1-0.4,0.2-0.5c0.1,0,0.1,0,0.2,0c0.1,0,0.1,0,0.2,0c0.1-0.1,0.2-0.1,0.4-0.2
			c0,0,0.1-0.1,0.2-0.1c0.1,0,0.1,0.1,0.1,0.4c0,0.2,0,0.4-0.1,0.4c-0.2,0.1-0.4,0.5-0.5,1c-0.1,0.9-0.2,1.8-0.1,2.7
			c0,0.4,0,0.6,0,1c0,2.9,0.1,5.8,0.1,8.7c0,0.2,0,0.3,0,0.6c0,1,0,1.9,0.2,2.9c0.1,0.6,0.3,1,0.6,1.1c0.1,0,0.1,0.2,0.1,0.4
			c0,0.3-0.1,0.4-0.2,0.4c-0.1,0-0.2,0-0.2-0.1c-0.2-0.1-0.4-0.2-0.6-0.2c-0.2,0-0.4,0-0.6,0.1c-0.1,0.1-0.2,0.1-0.3,0.1
			c-0.1,0-0.1-0.1-0.1-0.4c0-0.1,0-0.3,0.1-0.4c0.2-0.2,0.3-0.5,0.3-0.7c0.1-0.5,0.1-1,0.1-1.4c0-0.3,0-0.5,0-0.6
			c0-3.1-0.1-6.1-0.1-9.2c0-0.2,0-0.4,0-0.4c-0.1,0.3-0.1,0.5-0.1,0.8c-0.4,3.7-0.9,7.4-1.3,11l0,0.4c0,0.3-0.1,0.6-0.2,0.9
			c-0.2-0.5-0.2-1-0.3-1.5c-0.1-0.6-0.1-0.8-0.2-1.4c-0.4-3.1-0.7-6.2-1.1-9.3l0-0.2c0-0.1,0-0.1,0-0.1c0,0-0.1,0.2-0.1,0.5
			c0,0.2,0,0.3,0,0.4c0,2.2,0,4.4,0,6.6c0,0.2,0,0.3,0,0.5c0,0.5,0,0.7,0,1.2c-0.1,0.8,0.1,1.6,0.6,2.3c0.1,0.1,0.2,0.3,0.2,0.5
			c0,0.2,0,0.4-0.1,0.4c-0.1,0-0.2,0-0.2-0.1l-0.2-0.1c-0.1,0-0.2-0.1-0.3,0c-0.2,0-0.3,0-0.5,0.1c-0.1,0-0.1,0.1-0.2,0.1
			c-0.1,0-0.1-0.1-0.1-0.3c0-0.1,0-0.2,0.1-0.3c0.2-0.4,0.4-0.8,0.4-1.2c0.1-0.8,0.1-1.6,0.1-2.4c0-2.8,0.1-5.7,0.1-8.5
			c0-0.3,0-0.5,0-0.9c0-0.8,0-1.6-0.2-2.4c-0.1-0.6-0.3-0.8-0.6-0.7c-0.1,0-0.1-0.1-0.1-0.3c0-0.2,0.1-0.4,0.2-0.4c0,0,0.1,0,0.1,0
			l0.2,0c0,0,0.1,0,0.1,0c0.1,0,0.2-0.1,0.3-0.2c0.1-0.1,0.2-0.1,0.3-0.2C33.3,56.8,33.4,57,33.4,57.6"/>
		<path id="Path_177" class="st0" d="M41.2,56.8c0.5,5,1.1,10,1.6,15c0,0.6,0.1,1.1,0.3,1.6c0.1,0.3,0.2,0.5,0.4,0.7
			c0,0,0.1,0.2,0.1,0.4c0,0.3,0,0.4-0.1,0.4c0,0-0.1,0-0.1-0.1c-0.3-0.2-0.6-0.3-0.9-0.2c-0.3,0-0.6,0-0.8,0.2c0,0-0.1,0.1-0.1,0.1
			c-0.1,0-0.1-0.1-0.1-0.4c0-0.1,0-0.2,0.1-0.3c0.1-0.2,0.2-0.4,0.3-0.7c0.1-0.4,0.1-0.7,0.1-1.1c0-0.5-0.1-1.7-0.3-3.5
			c0-0.3-0.1-0.7-0.2-1c-0.2-0.1-0.5-0.2-0.8-0.2l-0.5-0.1l-0.3,0.2c-0.2,0.6-0.3,1.3-0.3,1.9c0,0.4-0.1,0.7-0.1,1.1
			c0,0.3,0,0.6,0,1c0,1.2,0.2,1.9,0.6,2.1c0.1,0.1,0.1,0.2,0.1,0.4c0,0.3,0,0.4-0.1,0.4c-0.1,0-0.1,0-0.2-0.1
			c-0.1-0.1-0.3-0.2-0.4-0.2c-0.2,0-0.4,0.1-0.5,0.1c-0.1,0.1-0.2,0.1-0.3,0.1c-0.1,0-0.1-0.1-0.1-0.3c0-0.2,0-0.3,0.1-0.4
			c0.2-0.3,0.3-0.6,0.3-0.9c0.1-0.4,0.2-1.4,0.3-2.8c0.3-3,0.6-6.1,1-9.1c0.1-0.7,0.1-1.2,0.2-1.5c0.1-1.1,0.2-1.6,0.3-2.7
			c0.1-0.5,0.1-0.8,0.2-1.3v0c0-0.4,0.1-0.7,0.2-1c0.1,0.4,0.2,0.8,0.2,1.3C41.2,56.4,41.2,56.5,41.2,56.8 M41.3,65.8
			c-0.2-1.5-0.3-3-0.5-4.4c0-0.5-0.1-1.1-0.2-1.6c-0.1,0.3-0.1,0.7-0.2,1c0,0.2,0,0.4-0.1,0.6c-0.2,1.5-0.2,2.3-0.4,3.8l0,0.4
			c0,0.1,0,0.2,0,0.4c0,0.3,0.1,0.5,0.3,0.5l1,0.1c0.1,0,0.1-0.1,0.1-0.3c0,0,0-0.1,0-0.2L41.3,65.8"/>
		<path id="Path_178" class="st0" d="M45.4,56.2c0.3,0.1,0.5,0.4,0.6,0.7l0.2,0.4c0.1,0.2,0.2,0.3,0.2,0.3s0.1,0,0.1-0.1l0.1-0.2
			c0,0,0,0,0.1,0c0,0,0.1,0.2,0.1,0.5c0,0.4,0,0.6,0,1.1c0,0.2,0,0.3,0,0.5c0,0.5,0,0.8,0,1.3c0,0.5,0,0.7,0,1.2c0,0.1,0,0.2,0,0.3
			c0,0.4,0,0.6-0.1,0.5c0,0-0.1-0.2-0.1-0.5c0-1.1-0.2-2.2-0.5-3.3c-0.3-1-0.6-1.5-0.9-1.6c-0.2-0.1-0.4,0.2-0.6,0.7
			c-0.2,0.6-0.3,1.2-0.2,1.9c0,0.6,0.1,1.2,0.2,1.8c0.2,0.6,0.5,1.2,0.8,1.7c0.5,0.8,0.9,1.7,1.1,2.7c0.2,1.2,0.3,2.4,0.3,3.6
			c0,1.3-0.1,2.6-0.4,3.9c-0.3,1.1-0.6,1.7-1,1.7c-0.2,0-0.4-0.2-0.8-0.6c-0.1-0.1-0.2-0.3-0.4-0.4c-0.1-0.1-0.2-0.1-0.2-0.2
			c0-0.2,0-0.5,0-0.7c0-0.4,0-1-0.1-1.9c-0.1-1.2-0.1-2-0.1-2.4c0-0.4,0-0.7,0.1-0.6c0,0,0.1,0.1,0.1,0.3c0.1,1.3,0.3,2.7,0.6,4
			c0.3,1.1,0.6,1.6,0.9,1.6c0.2,0,0.4-0.3,0.6-1c0.2-0.8,0.3-1.5,0.3-2.3c0-0.6,0-1.1-0.1-1.7c-0.1-0.5-0.3-0.9-0.5-1.3
			c-0.2-0.4-0.3-0.6-0.5-1c-0.5-0.8-0.8-1.7-1-2.6c-0.2-1-0.3-2.1-0.3-3.2c0-1.2,0.1-2.5,0.4-3.7C44.7,56.5,45,56.1,45.4,56.2"/>
		<path id="Path_179" class="st0" d="M49.2,57.4c0.3,0.1,0.5,0.4,0.6,0.6l0.2,0.4c0.1,0.2,0.2,0.3,0.2,0.3s0.1,0,0.1-0.1l0.1-0.2
			c0,0,0,0,0.1,0c0,0,0.1,0.2,0.1,0.4c0,0.4,0,0.6,0,1c0,0.2,0,0.3,0,0.4c0,0.5,0,0.7,0,1.2c0,0.4,0,0.7,0,1.1c0,0.1,0,0.2,0,0.2
			c0,0.3,0,0.5-0.1,0.5c0,0-0.1-0.2-0.1-0.5c-0.1-1-0.2-2.1-0.5-3.1c-0.3-0.9-0.6-1.4-0.9-1.5c-0.2-0.1-0.4,0.1-0.6,0.6
			c-0.2,0.6-0.3,1.2-0.2,1.7c0,0.6,0.1,1.2,0.2,1.7c0.2,0.6,0.5,1.1,0.8,1.6c0.5,0.8,0.9,1.6,1.1,2.5c0.2,1.1,0.3,2.2,0.3,3.3
			c0,1.2-0.1,2.5-0.4,3.7c-0.3,1-0.6,1.6-1,1.6c-0.2,0-0.4-0.2-0.8-0.6c-0.1-0.1-0.2-0.3-0.4-0.4c-0.1-0.1-0.2-0.1-0.2-0.2
			c0-0.2,0-0.4,0-0.7c0-0.4,0-1-0.1-1.7c-0.1-1.2-0.1-1.9-0.1-2.2c0-0.4,0-0.6,0.1-0.6c0,0,0.1,0.1,0.1,0.3c0.1,1.3,0.3,2.5,0.6,3.7
			c0.3,1,0.6,1.5,0.9,1.5c0.2,0,0.4-0.3,0.6-0.9c0.2-0.7,0.3-1.4,0.3-2.2c0-0.5,0-1.1-0.1-1.6c-0.1-0.4-0.3-0.9-0.5-1.2
			c-0.2-0.4-0.3-0.5-0.5-0.9c-0.5-0.8-0.8-1.6-1-2.5c-0.2-1-0.3-2-0.3-3c0-1.2,0.1-2.3,0.4-3.4C48.5,57.6,48.8,57.3,49.2,57.4"/>
		<path id="Path_180" class="st0" d="M54,60.5c0.5,4,1.1,8,1.6,12c0,0.4,0.1,0.9,0.3,1.3c0.1,0.2,0.2,0.4,0.4,0.6
			c0,0,0.1,0.1,0.1,0.3s0,0.3-0.1,0.3c0,0-0.1,0-0.1-0.1c-0.3-0.1-0.6-0.2-0.9-0.2c-0.3,0-0.6,0-0.8,0.2c0,0-0.1,0-0.1,0
			c-0.1,0-0.1-0.1-0.1-0.3c0-0.1,0-0.2,0.1-0.2c0.1-0.2,0.2-0.4,0.3-0.6c0.1-0.3,0.1-0.6,0.1-0.9c-0.1-0.9-0.2-1.9-0.3-2.8
			c0-0.3-0.1-0.5-0.2-0.8c-0.3-0.1-0.5-0.2-0.8-0.2l-0.5-0.1l-0.3,0.2c-0.2,0.5-0.3,1-0.3,1.5l-0.1,0.9c0,0.3,0,0.5,0,0.8
			c0,1,0.2,1.6,0.6,1.7c0.1,0,0.1,0.2,0.1,0.3c0,0.2,0,0.3-0.1,0.3c-0.1,0-0.1,0-0.2-0.1c-0.1-0.1-0.3-0.1-0.4-0.2
			c-0.2,0-0.4,0.1-0.5,0.1c-0.1,0-0.2,0.1-0.3,0.1c-0.1,0-0.1-0.1-0.1-0.3c0-0.1,0-0.3,0.1-0.4c0.2-0.2,0.3-0.5,0.3-0.7
			c0.1-0.4,0.2-1.1,0.3-2.3c0.3-2.4,0.6-4.8,1-7.3c0.1-0.6,0.1-1,0.2-1.2c0.1-0.9,0.2-1.3,0.3-2.1c0.1-0.4,0.1-0.6,0.2-1v0
			c0-0.3,0.1-0.6,0.2-0.8c0.1,0.3,0.2,0.7,0.2,1C53.9,60.1,53.9,60.2,54,60.5 M54.1,67.6c-0.2-1.4-0.3-2.1-0.5-3.6
			c0-0.4-0.1-0.9-0.2-1.3c-0.1,0.3-0.1,0.5-0.2,0.8L53.2,64c-0.2,1.2-0.2,1.8-0.4,3l0,0.3c0,0.1,0,0.2,0,0.3c0,0.3,0.1,0.4,0.3,0.4
			l1,0.1c0.1,0,0.1-0.1,0.1-0.2c0-0.1,0-0.1,0-0.2L54.1,67.6"/>
		<path id="Path_181" class="st0" d="M58.9,60.4c0.4,0.1,0.8,0.6,1.4,1.4c0.1,0.2,0.2,0.3,0.3,0.3s0.1,0,0.1-0.1l0-0.1
			c0-0.1,0.1-0.1,0.1-0.1c0.1,0,0.1,0.1,0.1,0.4c0,0.3,0,0.4,0,0.7c0,0.5,0,0.8,0,1.4c0,0.3,0,0.4,0,0.7c0,0.2,0,0.4,0,0.6
			c0,0.1,0,0.1,0,0.2c0,0.2,0,0.3-0.1,0.3c0,0-0.1-0.2-0.1-0.4c-0.1-0.8-0.2-1.7-0.4-2.4c-0.4-1.2-0.8-1.9-1.3-2
			c-0.5-0.1-0.9,0.3-1.1,1.4c-0.3,1.5-0.5,3-0.4,4.4c0,1.7,0.1,3.5,0.4,5.2c0.3,1.4,0.7,2.1,1.1,2.1c0.2,0,0.4-0.1,0.5-0.2
			c0.2-0.1,0.3-0.3,0.5-0.5c0.1-0.2,0.2-0.5,0.2-0.8c0-0.3,0.1-0.9,0.1-1.6c0-0.6,0-1.1-0.2-1.7c-0.1-0.3-0.3-0.5-0.6-0.6
			c-0.1,0-0.1-0.1-0.1-0.3s0-0.3,0.1-0.3c0,0,0.1,0,0.1,0c0.3,0.1,0.5,0.2,0.8,0.2c0.2,0,0.4,0.1,0.7,0c0.1,0,0.2,0,0.3,0
			c0.1,0,0.1,0.1,0.1,0.3s0,0.3-0.1,0.3c-0.1,0.1-0.2,0.3-0.3,0.6c-0.1,0.6-0.1,1.1-0.1,1.7c0,0.2,0,0.5,0,0.7c0,0.3,0,0.6,0,0.7
			c0,0.2,0,0.3,0,0.4c0,0.1-0.1,0.2-0.2,0.3c-0.1,0.1-0.2,0.3-0.6,0.7c-0.6,0.7-1,1-1.5,1c-0.6,0-1.2-0.6-1.6-2
			c-0.5-1.7-0.7-3.4-0.6-5.2c0-1.9,0.2-3.9,0.7-5.7C57.6,60.8,58.2,60.2,58.9,60.4"/>
		<path id="Path_182" class="st0" d="M63.4,64.3v2c0,0.4,0,0.7,0,1.1c0,0.2,0.1,0.3,0.2,0.3l0.1,0l0.2,0l0.3,0.1
			c0.2,0,0.4-0.3,0.5-0.9l0.1-0.4c0-0.1,0.1-0.2,0.1-0.1c0.1,0,0.1,0.1,0.1,0.3c0,0,0,0.2,0,0.4c0,0.2,0,0.3,0,0.4
			c0,0.2,0,0.6,0,1.4c0,0.5,0,0.9,0,1.2c0,0.2,0,0.3,0,0.5c0,0.1,0,0.1,0,0.2c0,0,0,0.1-0.1,0.1c-0.1,0-0.1-0.1-0.1-0.4
			c0-0.4-0.1-0.8-0.2-1.2c0-0.1-0.1-0.2-0.2-0.3c-0.2-0.1-0.3-0.1-0.5-0.1l-0.2,0c-0.1,0-0.2,0-0.2,0.1c-0.1,0.2-0.1,0.4-0.1,0.5
			c0,0.3,0,0.8,0,1.5v0.8c0,0.6,0,1.3,0.1,1.9c0,0.2,0.1,0.4,0.1,0.6c0,0.1,0.1,0.2,0.2,0.2c0.9,0,1.6-0.7,1.9-2.1
			c0-0.1,0-0.1,0-0.1s0,0,0.1,0.1c0,0.1,0,0.1,0,0.2c0,0.6-0.1,1.1-0.2,1.7c-0.1,0.4-0.2,0.7-0.4,1C65.2,74.9,65,75,64.7,75
			c-0.2,0-0.3,0-0.5-0.1l-0.4-0.1c-0.2,0-0.4-0.1-0.6-0.1c-0.3,0-0.5,0-0.8,0.1c-0.1,0-0.1,0-0.2,0c-0.1,0-0.1-0.1-0.1-0.2
			c0-0.1,0-0.2,0.1-0.3c0.1-0.1,0.2-0.3,0.3-0.4c0.1-0.3,0.1-0.5,0.1-0.8c0-0.3,0-0.8,0-1.4v-7.5c0-0.5,0-1-0.1-1.5
			c-0.1-0.3-0.3-0.5-0.5-0.7c-0.1,0-0.1-0.1-0.1-0.3s0-0.2,0.1-0.2c0,0,0.1,0,0.1,0.1c0.1,0,0.1,0,0.2,0.1l0.4,0.1l1.3,0.4
			c0.5,0.2,0.9,0.3,1.4,0.4c0,0,0,0,0,0c0.1,0,0.1,0.1,0.1,0.3c0,0.1,0,0.4,0,0.7c0,0.5,0,0.9,0,1.1c0,0.4,0,0.7-0.1,0.7
			c0,0-0.1-0.1-0.1-0.4c0-0.5-0.1-0.9-0.3-1.4c-0.2-0.3-0.5-0.6-0.8-0.6L63.9,63h-0.2c-0.1,0.1-0.2,0.4-0.2,0.9
			C63.4,64,63.4,64.1,63.4,64.3"/>
		<path id="Path_183" class="st1" d="M66.9,28.1c0.3,0.2-0.9,1.5-0.5,3c0.2,0.5,0.5,1,0.9,1.4c0.5,0.5,1,0.9,1.7,1.2v6.3
			c-0.1,0-0.2,0-0.3,0c-3.9-0.1-6.8-2.3-10.8-6c-3.4-3-6.5-6.1-9.5-9.5c-2.1-2.4-4-4.9-5.7-7.5c-1.2-1.9-2.2-3.8-3.2-5.9V3.6
			c0.1,0.3,0.3,0.7,0.5,1.2c2.2,5.4,5.1,10.4,8.6,15.1c2.8,4,6,7.8,9.6,11.1c1.9,1.7,3.8,3.3,5.9,4.8c0.2,0.2,0.5,0.3,0.8,0.5
			c0.2,0.1,1.4,0.6,1.8,0.2c0.3-0.4,0-1.2-0.2-1.7c-0.2-0.5-0.5-1-0.9-1.5c-0.6-1.1-0.7-2.3-0.3-3.5C65.7,28.7,66.7,28,66.9,28.1"/>
		<path id="Path_184" class="st1" d="M12.1,28.1c-0.3,0.2,0.9,1.5,0.5,3c-0.2,0.5-0.5,1-0.9,1.4c-0.5,0.5-1,0.9-1.7,1.2v6.3
			c0.1,0,0.2,0,0.3,0c3.9-0.1,6.8-2.3,10.8-6c3.4-3,6.5-6.1,9.5-9.5c2.1-2.4,4-4.9,5.7-7.5c1.2-1.9,2.2-3.8,3.2-5.9V3.6
			c-0.1,0.3-0.3,0.7-0.5,1.2c-2.2,5.4-5.1,10.4-8.6,15.1c-2.8,4-6,7.8-9.6,11.1C19,32.7,17,34.3,15,35.8c-0.2,0.2-0.5,0.3-0.8,0.5
			c-0.2,0.1-1.4,0.6-1.8,0.2c-0.3-0.4,0-1.2,0.2-1.7c0.2-0.5,0.5-1,0.9-1.5c0.6-1.1,0.7-2.3,0.3-3.5C13.3,28.7,12.3,28,12.1,28.1"/>
	</g>
</g>
</svg>
