<svg id="Group_24" data-name="Group 24" xmlns="http://www.w3.org/2000/svg" xmlns:xlink="http://www.w3.org/1999/xlink" width="273.043" height="77.19" viewBox="0 0 273.043 77.19">
  <defs>
    <clipPath id="clip-path">
      <rect id="Rectangle_75" data-name="Rectangle 75" width="273.043" height="77.19" fill="none"/>
    </clipPath>
  </defs>
  <g id="Group_23" data-name="Group 23" clip-path="url(#clip-path)">
    <path id="Path_164" data-name="Path 164" d="M743.14,255.737a3.413,3.413,0,0,0-.253-1.58c-.168-.284-.406-.3-.714-.061q-.148.115-.148-.193a.7.7,0,0,1,.062-.328,1.071,1.071,0,0,1,.271-.282l.724-.554c.165-.131.315-.257.443-.377.2-.188.476-.468.824-.83a13.38,13.38,0,0,1,1.119-1.075c1.076-.868,1.978-.807,2.588.252.951,1.653.964,3.782.974,5.624a24.6,24.6,0,0,1-1.309,8.715c-.645,1.709-1.364,2.684-2.167,3a8,8,0,0,1-.8.213,5.28,5.28,0,0,0-.7.226,4.741,4.741,0,0,0-1.128.561,1.541,1.541,0,0,1-.3.21q-.11.042-.11-.306a.451.451,0,0,1,.119-.349,1.367,1.367,0,0,0,.4-.772,8.954,8.954,0,0,0,.107-1.651Zm1.1-1.455v10.81c.023.437.034.656.057,1.1.1.907.5,1.226,1.175.948.735-.3,1.328-1.233,1.75-2.839a23.954,23.954,0,0,0,.647-6.108,15.048,15.048,0,0,0-.778-5.679c-.493-1.192-1.188-1.439-2.009-.8a2.09,2.09,0,0,0-.689.886,5.8,5.8,0,0,0-.152,1.682" transform="translate(-632.39 -212.938)" fill="#fff"/>
    <path id="Path_165" data-name="Path 165" d="M794.048,216.373q1.128,7.3,2.167,14.623a7.323,7.323,0,0,0,.381,1.68c.146.347.335.544.567.589q.086.014.086.419c0,.291-.04.45-.11.463a.473.473,0,0,1-.181-.025,1.914,1.914,0,0,0-1.183.194,2.808,2.808,0,0,0-1.117.676.338.338,0,0,1-.124.111q-.133.052-.134-.378a.621.621,0,0,1,.1-.364,2.544,2.544,0,0,0,.379-.911,5.1,5.1,0,0,0,.15-1.221,29.536,29.536,0,0,0-.413-3.537c-.086-.54-.18-.824-.283-.855a2.973,2.973,0,0,0-1.095.458l-.646.346-.427.458a9.3,9.3,0,0,0-.4,2.089c-.059.467-.088.7-.147,1.164a7.381,7.381,0,0,0-.067.98c0,1.19.279,1.763.838,1.729.12,0,.18.121.176.357,0,.257-.064.408-.172.45a.469.469,0,0,1-.243.008,1.032,1.032,0,0,0-.563.034,4.4,4.4,0,0,0-.725.424,3.9,3.9,0,0,1-.463.291q-.134.052-.133-.286a.823.823,0,0,1,.133-.476,2.7,2.7,0,0,0,.412-1.038c.1-.466.256-1.423.459-2.892q.663-4.87,1.3-9.744c.1-.794.178-1.344.219-1.645.177-1.235.266-1.858.443-3.113.091-.621.137-.933.228-1.559v.044a7.489,7.489,0,0,1,.2-1.288c.051-.041.138.3.262,1.04l.115.7m.178,9.238q-.307-2.08-.622-4.159c-.149-.983-.255-1.445-.318-1.4a5.864,5.864,0,0,0-.209,1.184c-.036.27-.054.405-.09.674q-.275,2.111-.556,4.221c-.021.156-.031.235-.052.391a2.9,2.9,0,0,0-.033.394q0,.489.342.3l1.406-.793a.436.436,0,0,0,.18-.416,1.946,1.946,0,0,0-.024-.241c-.009-.06-.014-.091-.024-.151" transform="translate(-673.507 -182.916)" fill="#fff"/>
    <path id="Path_166" data-name="Path 166" d="M841.841,192.373a30.74,30.74,0,0,0,.167,4.213c.094.691.33,1.046.657,1.027q.2-.012.2.471t-.162.546a.839.839,0,0,1-.2.025,2.726,2.726,0,0,0-.791.19,3.217,3.217,0,0,0-.567.284l-.4.28-.319.216a1.033,1.033,0,0,1-.186.118q-.172.066-.172-.377a.928.928,0,0,1,.1-.5,2.889,2.889,0,0,0,.448-1.1,10.084,10.084,0,0,0,.124-1.82V194.4c0-.255,0-.383,0-.638q0-5.9,0-11.8a13.263,13.263,0,0,0-.143-2.516c-.156-.608-.418-.831-.762-.721-.124.04-.2-.1-.2-.4s.045-.491.133-.562a.793.793,0,0,1,.171-.089,3.613,3.613,0,0,0,.8-.513,11.5,11.5,0,0,0,1.167-1.113,14.141,14.141,0,0,1,1.109-1.109c.6-.485,1.114-.292,1.5.6a11.12,11.12,0,0,1,.6,4.142,18.473,18.473,0,0,1-.265,3.35,10.422,10.422,0,0,1-.726,2.6.863.863,0,0,0-.09.4,2.337,2.337,0,0,0,.048.387q.043.217.128.74c.17,1,.254,1.5.424,2.52.2,1.177.294,1.771.49,2.97a14.251,14.251,0,0,0,.45,2.08c.132.369.286.519.464.444a.524.524,0,0,0,.2-.159.32.32,0,0,1,.1-.1c.057-.024.086.1.086.378a3.335,3.335,0,0,1-.39,1.346c-.26.546-.49.853-.691.931-.327.126-.639-.359-.9-1.413-.5-1.984-.764-4.058-1.074-6.1a12.811,12.811,0,0,0-.423-2.163.332.332,0,0,0-.543-.185l-.3.173-.214.258a2.906,2.906,0,0,0-.072.84v3.377m0-13.007v5.766a5.958,5.958,0,0,0,.079,1.3q.079.236.375.056a5.305,5.305,0,0,0,1.052-.751,2.455,2.455,0,0,0,.379-.929,13.809,13.809,0,0,0,.348-3.372,12.747,12.747,0,0,0-.47-3.972c-.313-.893-.712-1.137-1.2-.76a1.364,1.364,0,0,0-.446.825,9.767,9.767,0,0,0-.122,1.835" transform="translate(-715.586 -148.874)" fill="#fff"/>
    <path id="Path_167" data-name="Path 167" d="M890.309,128.248a.13.13,0,0,1,.11-.029c.046,0,.18-.318.377-.121l.506.5.468.3a3.121,3.121,0,0,0,.42.162.491.491,0,0,1,.157.088q.129.1.129.614c0,.262-.04.387-.119.377l-.181-.007q-.371-.041-.372,2.952c0,.677,0,1.016,0,1.693,0,.953-.006,1.43-.009,2.383-.006,2.994-.019,5.994-.136,8.981a42.2,42.2,0,0,1-.435,5.119c-.261,1.636-.827,4.427-2.438,5.136-.753.331-1.479-.077-1.886-1.066-1.09-2.652-.881-6.041-.91-8.929q.026-3.561.052-7.121c-.006-1.33-.009-1.995-.014-3.324a14.813,14.813,0,0,0-.064-1.71,1.194,1.194,0,0,0-.264-.673.541.541,0,0,0-.524-.171c-.122.026-.186-.111-.186-.4q0-.477.162-.607a.9.9,0,0,1,.195-.1,4.32,4.32,0,0,0,.932-.527,8.41,8.41,0,0,0,1.032-1.031,3.114,3.114,0,0,1,.328-.339q.247-.2.247.358a1.945,1.945,0,0,1-.038.452,1.419,1.419,0,0,1-.181.372,2.907,2.907,0,0,0-.391,1.158,23.342,23.342,0,0,0-.124,2.532l-.076,4.755c0,1.318.006,1.977.009,3.3.006,2.122-.008,4.255.121,6.365a12.944,12.944,0,0,0,.5,3.056c.384,1.223.876,1.73,1.476,1.483s1.108-1.194,1.486-2.862a24.138,24.138,0,0,0,.541-4.245c.174-2.708.153-5.49.16-8.236V137.29c-.01-1.611-.014-2.417-.024-4.029a16.8,16.8,0,0,0-.276-3.042c-.165-.8-.389-1.209-.671-.986q-.186.146-.186-.433a1.058,1.058,0,0,1,.091-.552" transform="translate(-754.234 -109.116)" fill="#fff"/>
    <path id="Path_168" data-name="Path 168" d="M942.526,148.315q1.222,6.106,2.519,12.2c.065.3.1.451.161.75a5.674,5.674,0,0,0,.432,1.545q.1.052.109-.992c.023-2.4.036-4.81.043-7.21a42.2,42.2,0,0,0-.226-5.636,4.1,4.1,0,0,0-.888-2.3.759.759,0,0,1-.157-.537q0-.466.138-.355a4.872,4.872,0,0,1,.554.618,2.91,2.91,0,0,0,.41.432,3.731,3.731,0,0,0,1.045.512.68.68,0,0,1,.139.077q.153.123.153.6c0,.286-.051.417-.152.395-.41-.052-.614,1.093-.614,3.425v.836q-.034,5.316-.067,10.633c-.008.584-.011.876-.019,1.461,0,.758,0,1.137-.005,1.9,0,.521,0,.781.005,1.3.008.858.012,1.287.019,2.145,0,.319-.033.46-.1.424s-.116-.182-.176-.446q-2.3-10.171-4.332-20.4a2.3,2.3,0,0,0-.157-.591q-.115-.081-.114.754c0,.214,0,.321,0,.535v7.2c.006,2.592-.034,5.2.148,7.783.1,1.424.414,2.336.929,2.725q.143.114.143.521,0,.556-.148.5a.738.738,0,0,1-.186-.145,2.526,2.526,0,0,0-.888-.6,1.324,1.324,0,0,0-.859-.068.411.411,0,0,1-.243.014q-.129-.05-.129-.513,0-.386.138-.485a2.257,2.257,0,0,0,.507-1.414,27.393,27.393,0,0,0,.16-3.449q.017-2.211.033-4.422v-8.093c-.036-2.142.185-5-1.081-6.889a.892.892,0,0,1-.148-.6q0-.543.162-.414l.33.32.2.141a3.433,3.433,0,0,0,.8.47,1.132,1.132,0,0,1,.263.155.825.825,0,0,1,.233.436c.057.212.177.816.361,1.8.131.7.2,1.043.328,1.733s.208,1.09.233,1.229" transform="translate(-800.788 -121.021)" fill="#fff"/>
    <path id="Path_169" data-name="Path 169" d="M995.979,189.816v3.474a17.409,17.409,0,0,0,.064,1.929.788.788,0,0,0,.312.594l.143.073.209.115.4.252c.314.2.557-.219.729-1.229l.109-.683c.029-.166.077-.231.143-.2s.1.2.1.486q0,.123-.014.667c-.007.262-.01.486-.01.67q0,.493.043,2.333.028,1.2.029,2.075l0,.786a1.684,1.684,0,0,1-.014.284c-.012.054-.038.077-.076.067q-.119-.032-.147-.664a10.124,10.124,0,0,0-.286-2.153,1.8,1.8,0,0,0-.3-.659,2.71,2.71,0,0,0-.669-.507l-.324-.193c-.152-.091-.257-.076-.312.046a2.949,2.949,0,0,0-.112.868c-.02.52-.029,1.358-.029,2.509V202.2c0,1.5.033,2.6.1,3.29a4.966,4.966,0,0,0,.191,1.053.638.638,0,0,0,.338.394c1.64.707,2.406-1.49,2.529-2.672.022-.11.041-.165.057-.168.031,0,.061.043.088.141a1.307,1.307,0,0,1,.041.343,14.367,14.367,0,0,1-.252,2.75,3.626,3.626,0,0,1-.524,1.48.669.669,0,0,1-.833.193,3.047,3.047,0,0,1-.676-.384l-.552-.387a3.968,3.968,0,0,0-.824-.417,5.267,5.267,0,0,0-1.057-.265,1.6,1.6,0,0,1-.281-.059c-.076-.029-.119-.17-.124-.419a.569.569,0,0,1,.1-.414,1.281,1.281,0,0,0,.369-.613,8.156,8.156,0,0,0,.155-1.365c.033-.56.052-1.336.052-2.326V189.418a13.633,13.633,0,0,0-.174-2.613,3.662,3.662,0,0,0-.721-1.484,1.012,1.012,0,0,1-.129-.593q0-.391.157-.264c.022.018.07.071.143.148a2.57,2.57,0,0,0,.233.2l.481.451,1.8,1.508a13.96,13.96,0,0,0,1.919,1.4.27.27,0,0,1,.067.038q.138.111.138.611c0,.233.01.655.029,1.265.027.9.038,1.538.038,1.921q0,1.151-.186,1.049-.09-.049-.091-.737a7.29,7.29,0,0,0-.345-2.457,3.392,3.392,0,0,0-1.117-1.552l-.581-.451-.324-.124q-.243.067-.243,1.429c0,.261,0,.392,0,.653" transform="translate(-847.015 -157.182)" fill="#fff"/>
    <path id="Path_170" data-name="Path 170" d="M1037.492,222.676v3.073a13.772,13.772,0,0,0,.064,1.711.743.743,0,0,0,.312.548l.143.075.21.117.4.252c.314.2.557-.152.729-1.028.044-.238.065-.356.109-.593.029-.144.077-.2.143-.161s.1.184.1.436q0,.108-.014.586c-.007.23-.009.427-.009.589,0,.289.014.975.043,2.055q.028,1.058.029,1.827c0,.276,0,.415,0,.691a1.308,1.308,0,0,1-.014.249c-.012.047-.038.066-.076.054q-.119-.036-.148-.593a8.148,8.148,0,0,0-.286-1.914,1.643,1.643,0,0,0-.3-.6,2.973,2.973,0,0,0-.669-.494l-.324-.193c-.152-.091-.256-.085-.312.019a2.255,2.255,0,0,0-.112.76c-.02.459-.029,1.2-.029,2.217v1.273a28.208,28.208,0,0,0,.1,2.915,4.065,4.065,0,0,0,.191.94.622.622,0,0,0,.338.365c1.289.534,2.132-.234,2.529-2.215.022-.095.042-.143.057-.144.032,0,.061.041.088.129a1.036,1.036,0,0,1,.04.3,10.923,10.923,0,0,1-.252,2.4,2.812,2.812,0,0,1-.524,1.273.713.713,0,0,1-.833.131,3.356,3.356,0,0,1-.676-.37l-.552-.367a4.42,4.42,0,0,0-.824-.406,5.985,5.985,0,0,0-1.057-.282,1.851,1.851,0,0,1-.281-.065c-.076-.03-.119-.156-.124-.378a.45.45,0,0,1,.1-.363,1.055,1.055,0,0,0,.369-.527,6.333,6.333,0,0,0,.155-1.2c.033-.495.052-1.182.052-2.06q0-5.737,0-11.473a10.983,10.983,0,0,0-.174-2.333,3.472,3.472,0,0,0-.721-1.38.875.875,0,0,1-.129-.538q0-.347.157-.221c.022.018.07.069.143.144a2.718,2.718,0,0,0,.234.2l.481.444,1.8,1.5a16.161,16.161,0,0,0,1.919,1.413.321.321,0,0,1,.067.04q.138.111.138.55c0,.2.01.576.028,1.113.026.789.038,1.354.038,1.69q0,1.01-.186.905-.09-.051-.09-.655a5.949,5.949,0,0,0-.346-2.19,3.461,3.461,0,0,0-1.117-1.47l-.581-.451-.324-.139q-.243.038-.243,1.242c0,.231,0,.346,0,.577" transform="translate(-882.394 -185.557)" fill="#fff"/>
    <path id="Path_171" data-name="Path 171" d="M1079.6,258.469a3.857,3.857,0,0,1,.876,1.143l.319.59a1.9,1.9,0,0,0,.3.454.135.135,0,0,0,.138.025l.181-.082a.071.071,0,0,1,.076.013q.1.08.1.467c0,.377-.006.566-.01.943q0,.223.01.43c.025.479.037.718.062,1.195.019.44.028.66.048,1.1.006.1.01.178.01.241q0,.5-.119.423-.086-.057-.124-.529a13.792,13.792,0,0,0-.7-3.368,4.8,4.8,0,0,0-1.183-2.149c-.286-.225-.536-.17-.749.175a3.063,3.063,0,0,0-.32,1.571,6.216,6.216,0,0,0,.281,1.871,13.626,13.626,0,0,0,1.13,2.2,14.136,14.136,0,0,1,1.5,3.213,12.667,12.667,0,0,1,.434,3.406,7.694,7.694,0,0,1-.6,3.282c-.4.851-.868,1.2-1.4.993a3.474,3.474,0,0,1-1.043-.988,6.51,6.51,0,0,0-.49-.575.9.9,0,0,1-.255-.327,4.19,4.19,0,0,1-.06-.685q-.025-.611-.143-1.81c-.121-1.222-.181-2-.181-2.332q0-.62.148-.541.066.035.1.358a17.609,17.609,0,0,0,.811,4.058c.387,1.145.784,1.787,1.2,1.953.321.129.608-.069.86-.579a4.331,4.331,0,0,0,.379-1.938,6.113,6.113,0,0,0-.2-1.641,6.266,6.266,0,0,0-.684-1.516c-.29-.488-.435-.736-.725-1.236a13.818,13.818,0,0,1-1.392-3.11,11.937,11.937,0,0,1-.367-3.16,7.406,7.406,0,0,1,.512-3.16c.341-.677.766-.794,1.274-.384" transform="translate(-918.458 -220.077)" fill="#fff"/>
    <path id="Path_172" data-name="Path 172" d="M744.816,396.2v6.932a9.651,9.651,0,0,0,.172,2.2c.115.43.325.664.608.715.083.015.126.129.126.333q0,.22-.109.221a.722.722,0,0,1-.088-.009l-.263-.026-.439-.071a.877.877,0,0,0-.14-.008,2.211,2.211,0,0,0-.365.03l-.776.122a.728.728,0,0,1-.168.036c-.073,0-.108-.078-.105-.233a.682.682,0,0,1,.035-.257.183.183,0,0,1,.137-.079c.181-.034.324-.2.423-.515a4.342,4.342,0,0,0,.149-1.273c0-.17,0-.255,0-.424v-8.016q0-.713-.3-.628a1.834,1.834,0,0,0-.959.53,1.33,1.33,0,0,0-.248.5c-.041.171-.1.583-.167,1.231-.011.1-.017.15-.028.25q-.038.365-.12.383c-.077.017-.112-.065-.109-.242,0-.16.014-.387.035-.679l.035-.758c.017-.311.025-.467.042-.779.01-.213.015-.32.025-.534s.059-.355.147-.382a.764.764,0,0,1,.119-.02,2.327,2.327,0,0,0,.39-.094l.716-.2.854-.235a17.663,17.663,0,0,0,1.749-.66c.12-.051.2-.082.235-.092q.193-.06.2.379c.007.275.01.412.017.687,0,.108.015.365.035.769.017.335.025.606.025.812s-.032.326-.095.341-.091-.1-.112-.339a2.955,2.955,0,0,0-.283-1.212.488.488,0,0,0-.606-.218,1.033,1.033,0,0,0-.665.408,2.911,2.911,0,0,0-.132,1.11" transform="translate(-632.436 -335.319)" fill="#fff"/>
    <path id="Path_173" data-name="Path 173" d="M779.61,388.512l-1.665.262a.34.34,0,0,0-.307.234,4.8,4.8,0,0,0-.058.988v2.5a9.113,9.113,0,0,0,.161,2.049c.108.417.285.625.531.621q.119,0,.119.269,0,.323-.183.324a.993.993,0,0,1-.249-.06,2.4,2.4,0,0,0-.762-.135,2.088,2.088,0,0,0-.58.113,1.4,1.4,0,0,1-.27.07q-.112,0-.112-.327c0-.139.029-.219.088-.24q.239-.112.342-.616a8.308,8.308,0,0,0,.1-1.533c0-.213,0-.32,0-.533v-8.233a2.661,2.661,0,0,0-.139-1.022.715.715,0,0,0-.515-.392q-.1-.03-.1-.257,0-.286.112-.322a.644.644,0,0,1,.232,0,1.636,1.636,0,0,0,.667-.082,3.724,3.724,0,0,0,.555-.3,1.951,1.951,0,0,1,.383-.19q.127-.04.126.24a.385.385,0,0,1-.1.311q-.414.327-.414,1.62v2.58a7.071,7.071,0,0,0,.051,1.191q.051.167.339.115l1.64-.294a.326.326,0,0,0,.262-.306,12.143,12.143,0,0,0,.047-1.443v-2.274c0-.9-.165-1.4-.495-1.482l-.162-.046c-.066-.016-.1-.108-.1-.278q0-.307.113-.342a.61.61,0,0,1,.232.005,1.531,1.531,0,0,0,.671-.074,3.485,3.485,0,0,0,.555-.31,1.846,1.846,0,0,1,.383-.2q.127-.039.127.259a.422.422,0,0,1-.1.33q-.414.34-.414,1.725v9.227a10.493,10.493,0,0,0,.16,2.192c.106.445.28.669.521.665q.13,0,.13.287,0,.345-.183.346a.933.933,0,0,1-.246-.064,2.247,2.247,0,0,0-.762-.145,1.971,1.971,0,0,0-.583.121,1.32,1.32,0,0,1-.271.075q-.112,0-.112-.351,0-.223.088-.257.239-.119.343-.659a9.506,9.506,0,0,0,.1-1.64c0-.228,0-.343,0-.571v-2.323a9.139,9.139,0,0,0-.046-1.245.205.205,0,0,0-.264-.175" transform="translate(-661.362 -324.46)" fill="#fff"/>
    <path id="Path_174" data-name="Path 174" d="M817.834,374.433q.821,6.018,1.6,12.042a7.461,7.461,0,0,0,.281,1.4,1.113,1.113,0,0,0,.418.618c.042.024.063.139.063.346,0,.222-.031.332-.081.322a.464.464,0,0,1-.134-.072,1.447,1.447,0,0,0-.872-.2,1.333,1.333,0,0,0-.823.192.149.149,0,0,1-.091.049q-.1,0-.1-.333a.36.36,0,0,1,.077-.251,1.3,1.3,0,0,0,.279-.592,3.557,3.557,0,0,0,.11-.9,27.409,27.409,0,0,0-.3-2.867,1.57,1.57,0,0,0-.208-.755,1.7,1.7,0,0,0-.807-.007l-.476.054-.315.216a5.967,5.967,0,0,0-.294,1.513c-.043.349-.065.523-.109.87a5.753,5.753,0,0,0-.049.752c0,.939.206,1.478.618,1.622.089.037.133.15.13.334,0,.2-.047.3-.127.3a.381.381,0,0,1-.179-.067.83.83,0,0,0-.415-.143,2.077,2.077,0,0,0-.535.116,1.83,1.83,0,0,1-.341.09q-.1,0-.1-.268a.506.506,0,0,1,.1-.338,1.457,1.457,0,0,0,.3-.7c.076-.338.189-1.048.339-2.144q.488-3.611.959-7.223c.077-.584.131-.988.161-1.208.131-.9.2-1.354.327-2.267.067-.45.1-.675.169-1.128v.034a4.683,4.683,0,0,1,.151-.923,2.768,2.768,0,0,1,.193.913c.034.236.051.354.084.59m.132,7.241c-.183-1.395-.275-2.086-.459-3.455a3.942,3.942,0,0,0-.235-1.21,3.644,3.644,0,0,0-.154.848c-.027.2-.04.3-.067.494-.164,1.253-.246,1.875-.41,3.109l-.039.288a2.174,2.174,0,0,0-.024.3q0,.384.252.35l1.037-.14c.088-.012.133-.1.133-.262a1.827,1.827,0,0,0-.018-.2l-.018-.125" transform="translate(-694.624 -317.829)" fill="#fff"/>
    <path id="Path_175" data-name="Path 175" d="M853.147,377.567c.011.5.017.751.028,1.253a5.957,5.957,0,0,0,.206,1.475c.109.341.251.512.427.509q.172,0,.172.385t-.228.377a.85.85,0,0,1-.281-.065,2.225,2.225,0,0,0-.741-.18,1.027,1.027,0,0,0-.555.134.594.594,0,0,1-.253.118c-.052,0-.084-.087-.1-.262,0-.04,0-.06-.007-.1l.1-.289a1.745,1.745,0,0,0,.335-.788,9.966,9.966,0,0,0,.083-1.54c0-.44,0-.66,0-1.1q0-4.922,0-9.844a7.542,7.542,0,0,0-.112-1.586c-.075-.3-.214-.471-.411-.52a.379.379,0,0,1-.23-.124.606.606,0,0,1-.051-.3c0-.231.029-.353.084-.361a.407.407,0,0,1,.19.039.687.687,0,0,0,.425-.032,2.382,2.382,0,0,0,.488-.232l.256-.151a3.156,3.156,0,0,1,.555-.268c.077-.024.116.068.116.273a1.809,1.809,0,0,1-.018.314.251.251,0,0,1-.088.143,1.043,1.043,0,0,0-.325.6,9.288,9.288,0,0,0-.072,1.45v10.672" transform="translate(-725.719 -310.313)" fill="#fff"/>
    <path id="Path_176" data-name="Path 176" d="M872.067,352.127q.734,5.823,1.439,11.65c.063.524.116.78.158.768s.085-.2.13-.566q.674-5.616,1.324-11.234c.124-1.085.214-1.774.267-2.06s.124-.442.211-.469a.428.428,0,0,1,.155-.006.542.542,0,0,0,.211-.023,1.355,1.355,0,0,0,.356-.209.622.622,0,0,1,.162-.093q.123-.038.123.366c0,.221-.032.352-.095.39q-.329.2-.462,1.021a19.1,19.1,0,0,0-.132,2.682c0,.38,0,.57,0,.951q.042,4.348.084,8.7c0,.23,0,.344,0,.574a17.333,17.333,0,0,0,.17,2.859c.114.619.3.984.56,1.093q.1.056.1.418,0,.391-.239.392a.675.675,0,0,1-.225-.069,1.756,1.756,0,0,0-.609-.178,1.238,1.238,0,0,0-.616.144.876.876,0,0,1-.317.14c-.059,0-.088-.116-.088-.35a.567.567,0,0,1,.1-.38,1.414,1.414,0,0,0,.283-.709,9.338,9.338,0,0,0,.083-1.442q0-.457,0-.65-.051-4.584-.1-9.168c0-.248-.018-.37-.046-.363a2.537,2.537,0,0,0-.144.79q-.65,5.521-1.324,11.038l-.049.406a2.382,2.382,0,0,1-.167.85,5.477,5.477,0,0,1-.258-1.472c-.071-.555-.107-.832-.179-1.383q-.554-4.648-1.125-9.295l-.024-.191c-.009-.059-.023-.087-.042-.083q-.056.012-.056.548c0,.168,0,.251,0,.419q-.023,3.3-.046,6.606c0,.209,0,.314,0,.523.012.49.019.735.032,1.226a3.977,3.977,0,0,0,.551,2.342.589.589,0,0,1,.158.454q0,.35-.123.35a.513.513,0,0,1-.225-.065l-.25-.129a.575.575,0,0,0-.275-.05.875.875,0,0,0-.5.126.379.379,0,0,1-.176.086q-.109,0-.109-.34a.551.551,0,0,1,.084-.342,2.608,2.608,0,0,0,.4-1.2,17.856,17.856,0,0,0,.125-2.4q.048-4.272.1-8.544c0-.349.006-.524.011-.873a10.593,10.593,0,0,0-.206-2.392c-.137-.553-.325-.791-.564-.721q-.134.04-.133-.325t.151-.425a.36.36,0,0,1,.081-.012l.2-.011a.692.692,0,0,0,.144-.031,1.037,1.037,0,0,0,.323-.177,1.4,1.4,0,0,1,.309-.2c.154-.048.264.193.33.727" transform="translate(-741.904 -298.187)" fill="#fff"/>
    <path id="Path_177" data-name="Path 177" d="M917.379,348.364q.782,7.489,1.6,14.975a10.014,10.014,0,0,0,.281,1.647,1.333,1.333,0,0,0,.418.725c.042.029.063.16.063.393,0,.251-.031.375-.081.363a.451.451,0,0,1-.134-.083,1.334,1.334,0,0,0-.873-.241,1.139,1.139,0,0,0-.823.217.141.141,0,0,1-.091.059q-.1,0-.1-.406a.492.492,0,0,1,.077-.3,1.669,1.669,0,0,0,.279-.7,5,5,0,0,0,.111-1.069c0-.526-.1-1.683-.3-3.5a2.622,2.622,0,0,0-.208-.966,1.584,1.584,0,0,0-.807-.213l-.476-.054-.315.2a9.219,9.219,0,0,0-.294,1.94c-.044.449-.065.674-.109,1.121a9.506,9.506,0,0,0-.049.971c0,1.213.206,1.9.618,2.1.089.051.133.2.13.431,0,.255-.047.383-.127.383a.337.337,0,0,1-.179-.088.706.706,0,0,0-.415-.186,1.676,1.676,0,0,0-.535.148,1.516,1.516,0,0,1-.341.117c-.066,0-.1-.116-.1-.348a.793.793,0,0,1,.1-.438,2.175,2.175,0,0,0,.3-.9c.076-.437.189-1.356.339-2.769.319-3.049.632-6.1.959-9.146.077-.708.131-1.191.162-1.453.131-1.073.2-1.606.327-2.668.067-.521.1-.781.169-1.3v.043a5.177,5.177,0,0,1,.151-1.043,5.962,5.962,0,0,1,.193,1.26c.034.312.051.468.085.78m.132,8.935q-.231-2.22-.459-4.441a7.821,7.821,0,0,0-.235-1.628,4.291,4.291,0,0,0-.154.984c-.027.236-.04.354-.067.59-.164,1.5-.246,2.259-.41,3.78l-.039.356a3.342,3.342,0,0,0-.025.373q0,.493.252.527l1.037.14c.089.012.133-.081.133-.28,0-.047-.006-.129-.018-.243l-.017-.159" transform="translate(-779.461 -295.153)" fill="#fff"/>
    <path id="Path_178" data-name="Path 178" d="M953.392,355.648a1.323,1.323,0,0,1,.646.679l.235.44c.105.189.18.29.225.3s.067-.011.1-.061l.134-.208c.019-.029.037-.041.056-.035q.074.022.074.452c0,.421,0,.631-.007,1.052q0,.248.007.47c.018.515.027.772.046,1.286.014.477.021.715.035,1.191,0,.105.007.192.007.262q0,.559-.088.54c-.042-.009-.073-.18-.091-.514a15.111,15.111,0,0,0-.514-3.287c-.274-.968-.565-1.507-.872-1.6-.211-.063-.4.152-.552.653a6.339,6.339,0,0,0-.236,1.871,7.349,7.349,0,0,0,.207,1.837,8.593,8.593,0,0,0,.834,1.74,9.473,9.473,0,0,1,1.1,2.7,17.159,17.159,0,0,1,.32,3.553,15.382,15.382,0,0,1-.442,3.918c-.295,1.116-.64,1.686-1.036,1.686-.162,0-.418-.207-.769-.633a3.005,3.005,0,0,0-.362-.41.486.486,0,0,1-.188-.241,5.6,5.6,0,0,1-.044-.7q-.018-.639-.105-1.856c-.089-1.24-.133-2.038-.133-2.384q0-.655.109-.643.049.006.07.334a21.765,21.765,0,0,0,.6,3.95c.284,1.061.578,1.583.883,1.588.237,0,.448-.334.635-1a8.611,8.611,0,0,0,.28-2.305,8.352,8.352,0,0,0-.146-1.71,4.669,4.669,0,0,0-.5-1.317c-.214-.386-.321-.58-.535-.972a10.16,10.16,0,0,1-1.027-2.607,14.926,14.926,0,0,1-.271-3.151,14.455,14.455,0,0,1,.378-3.655c.252-.93.565-1.326.939-1.208" transform="translate(-811.326 -303.083)" fill="#fff"/>
    <path id="Path_179" data-name="Path 179" d="M979.253,363.794a1.32,1.32,0,0,1,.646.648l.235.417c.105.179.18.275.225.288s.067-.009.1-.055l.134-.192c.019-.027.037-.037.056-.032.049.015.074.156.074.424,0,.393,0,.59-.007.983q0,.231.007.44c.018.482.027.722.046,1.2.014.446.021.669.035,1.114q.007.147.007.245,0,.522-.088.5c-.042-.009-.073-.169-.091-.481a13.422,13.422,0,0,0-.514-3.083c-.274-.91-.565-1.42-.872-1.512-.211-.063-.4.135-.552.6a5.558,5.558,0,0,0-.236,1.749,6.5,6.5,0,0,0,.208,1.725,7.932,7.932,0,0,0,.834,1.641,8.675,8.675,0,0,1,1.1,2.536,15.076,15.076,0,0,1,.32,3.323,13.483,13.483,0,0,1-.442,3.661c-.3,1.043-.641,1.576-1.036,1.576-.161,0-.418-.194-.769-.593a2.911,2.911,0,0,0-.362-.385.462.462,0,0,1-.188-.226,5.089,5.089,0,0,1-.044-.657q-.018-.6-.105-1.741c-.089-1.164-.134-1.912-.134-2.236q0-.615.109-.6.049.006.07.314a19.252,19.252,0,0,0,.6,3.705c.284.995.578,1.484.883,1.489.237,0,.448-.312.635-.939a7.561,7.561,0,0,0,.28-2.155,7.34,7.34,0,0,0-.146-1.6,4.245,4.245,0,0,0-.5-1.236c-.214-.363-.321-.546-.535-.915a9.244,9.244,0,0,1-1.027-2.453,13.184,13.184,0,0,1-.271-2.958,12.665,12.665,0,0,1,.377-3.421c.252-.867.565-1.232.939-1.114" transform="translate(-833.366 -310.024)" fill="#fff"/>
    <path id="Path_180" data-name="Path 180" d="M1003.686,375.186q.779,6.011,1.6,12.017a6.533,6.533,0,0,0,.281,1.313,1.051,1.051,0,0,0,.418.578c.042.023.063.127.063.312s-.03.3-.081.288a.476.476,0,0,1-.134-.066,1.594,1.594,0,0,0-.872-.193,1.347,1.347,0,0,0-.823.173.148.148,0,0,1-.091.047q-.1,0-.1-.325a.336.336,0,0,1,.077-.242,1.205,1.205,0,0,0,.279-.561,3.216,3.216,0,0,0,.11-.853,27.157,27.157,0,0,0-.3-2.8,1.794,1.794,0,0,0-.208-.777,1.916,1.916,0,0,0-.807-.189l-.476-.054-.315.151a5.637,5.637,0,0,0-.294,1.521l-.109.9a6.3,6.3,0,0,0-.049.788c0,.992.206,1.572.618,1.734.089.042.133.158.13.347,0,.205-.047.308-.127.308a.377.377,0,0,1-.179-.071.831.831,0,0,0-.415-.156,1.891,1.891,0,0,0-.535.115,1.754,1.754,0,0,1-.342.094q-.1,0-.1-.295a.575.575,0,0,1,.1-.367,1.588,1.588,0,0,0,.3-.74c.076-.36.189-1.117.339-2.261q.471-3.636.959-7.269c.077-.566.131-.952.161-1.162.131-.857.2-1.282.327-2.128.068-.415.1-.622.169-1.034v.034a3.279,3.279,0,0,1,.151-.828,4.084,4.084,0,0,1,.193,1.022c.034.252.051.378.084.63m.132,7.163c-.183-1.418-.275-2.133-.459-3.576a5.312,5.312,0,0,0-.234-1.317,2.744,2.744,0,0,0-.154.784l-.066.471c-.164,1.2-.246,1.806-.41,3.026l-.039.285a2.14,2.14,0,0,0-.024.3q0,.4.252.431l1.037.14c.089.012.133-.061.133-.22a1.845,1.845,0,0,0-.018-.2l-.017-.128" transform="translate(-853.016 -318.343)" fill="#fff"/>
    <path id="Path_181" data-name="Path 181" d="M1039.075,384.377c.391.123.849.6,1.373,1.406.134.2.219.3.256.315s.062-.015.088-.074l.039-.088c.023-.06.054-.089.084-.085.067.01.105.144.105.388,0,.277,0,.415,0,.692-.006.541-.008.812-.014,1.353,0,.286.006.43.01.716,0,.179.014.374.021.579,0,.079,0,.14,0,.179,0,.211-.037.3-.109.275-.048-.017-.082-.162-.1-.437a10.639,10.639,0,0,0-.445-2.449c-.353-1.175-.78-1.856-1.281-2.006-.477-.143-.863.3-1.146,1.353a18.288,18.288,0,0,0-.43,4.444,23.735,23.735,0,0,0,.443,5.16c.29,1.391.659,2.077,1.091,2.085a.848.848,0,0,0,.49-.241,1.779,1.779,0,0,0,.452-.529,2.119,2.119,0,0,0,.194-.757q.054-.5.054-1.552a6.457,6.457,0,0,0-.151-1.689.843.843,0,0,0-.566-.605c-.072-.022-.109-.129-.109-.318s.042-.275.127-.263a.665.665,0,0,1,.123.038,3.251,3.251,0,0,0,.781.206,2.194,2.194,0,0,0,.661.027.8.8,0,0,1,.264-.021c.084.013.127.105.127.278s-.043.256-.127.292c-.135.058-.229.251-.281.573a12.145,12.145,0,0,0-.077,1.66c0,.244,0,.462.011.653.011.329.014.56.014.692a1.648,1.648,0,0,1-.044.447.687.687,0,0,1-.178.275c-.054.051-.24.265-.558.653-.56.678-1.048,1.037-1.465,1.037-.632,0-1.159-.644-1.551-1.965a17.4,17.4,0,0,1-.6-5.167,20.04,20.04,0,0,1,.7-5.723c.451-1.438,1.039-2.025,1.725-1.809" transform="translate(-883.484 -327.547)" fill="#fff"/>
    <path id="Path_182" data-name="Path 182" d="M1074.981,395.156v2.022a7.661,7.661,0,0,0,.047,1.108c.031.161.108.252.23.273l.105.01.155.019.3.053c.232.042.411-.257.537-.886l.081-.424q.032-.155.105-.148c.051.005.077.092.077.259,0,.048,0,.179-.011.393q-.007.232-.007.393c0,.192.01.643.031,1.352q.021.694.021,1.2c0,.183,0,.275,0,.458a.868.868,0,0,1-.01.169.066.066,0,0,1-.056.056c-.058.006-.095-.113-.109-.354a4.047,4.047,0,0,0-.211-1.19.639.639,0,0,0-.223-.315,1.427,1.427,0,0,0-.493-.141l-.239-.038a.194.194,0,0,0-.23.1,1.62,1.62,0,0,0-.083.531c-.015.307-.021.8-.021,1.467v.837a15.782,15.782,0,0,0,.077,1.891,1.9,1.9,0,0,0,.141.57.273.273,0,0,0,.249.154c.95.023,1.572-.7,1.865-2.127.016-.069.031-.106.042-.111s.045.011.065.063a.521.521,0,0,1,.03.191,7.432,7.432,0,0,1-.186,1.665,2.587,2.587,0,0,1-.386.981.741.741,0,0,1-.615.3,1.943,1.943,0,0,1-.5-.074l-.408-.1a2.66,2.66,0,0,0-.608-.06,4.57,4.57,0,0,0-.779.081,1.436,1.436,0,0,1-.208.027c-.056,0-.088-.073-.091-.216a.36.36,0,0,1,.077-.263,1.106,1.106,0,0,0,.272-.438,4.3,4.3,0,0,0,.114-.828c.025-.333.039-.788.039-1.363v-7.52a5.75,5.75,0,0,0-.128-1.478,1.286,1.286,0,0,0-.532-.692c-.063-.045-.095-.15-.095-.314s.039-.215.116-.191c.016.005.052.026.105.052a1.229,1.229,0,0,0,.172.063l.354.148,1.331.449a7.673,7.673,0,0,0,1.415.357.157.157,0,0,1,.049.006q.1.032.1.324c0,.136.008.38.021.732.02.518.028.89.028,1.114q0,.672-.137.657c-.044,0-.067-.141-.067-.409a2.9,2.9,0,0,0-.255-1.353,1.306,1.306,0,0,0-.823-.64l-.428-.125-.239,0c-.12.064-.179.361-.179.889,0,.152,0,.229,0,.381" transform="translate(-914.818 -334.508)" fill="#fff"/>
    <path id="Path_183" data-name="Path 183" d="M949.315,24.512c.259.176-.92,1.543-.452,3.012a3.613,3.613,0,0,0,.9,1.355,5.422,5.422,0,0,0,1.657,1.2v6.255c-.081,0-.2,0-.349,0-3.882-.066-6.815-2.342-10.794-5.954a102.975,102.975,0,0,1-9.487-9.487,59,59,0,0,1-5.722-7.529A51.476,51.476,0,0,1,921.909,7.5V0c.1.28.259.686.452,1.17a66.028,66.028,0,0,0,8.583,15.058,69.5,69.5,0,0,0,9.637,11.143,65.129,65.129,0,0,0,5.873,4.819,3.394,3.394,0,0,0,.753.452c.187.081,1.377.6,1.807.151.347-.361.034-1.175-.151-1.656a8.231,8.231,0,0,0-.9-1.506,4.178,4.178,0,0,1-.3-3.463c.441-1.092,1.449-1.8,1.656-1.656" transform="translate(-785.695 -0.001)" fill="#f5cb3c"/>
    <path id="Path_184" data-name="Path 184" d="M724.263,24.512c-.259.176.92,1.543.452,3.012a3.613,3.613,0,0,1-.9,1.355,5.422,5.422,0,0,1-1.656,1.2v6.255c.081,0,.2,0,.349,0,3.882-.066,6.814-2.342,10.794-5.954a102.967,102.967,0,0,0,9.487-9.487,59,59,0,0,0,5.722-7.529A51.447,51.447,0,0,0,751.669,7.5V0c-.1.28-.259.686-.452,1.17a66.03,66.03,0,0,1-8.583,15.058A69.5,69.5,0,0,1,733,27.373a65.154,65.154,0,0,1-5.873,4.819,3.4,3.4,0,0,1-.753.452c-.187.081-1.376.6-1.807.151-.347-.361-.034-1.175.151-1.656a8.245,8.245,0,0,1,.9-1.506,4.177,4.177,0,0,0,.3-3.463c-.441-1.092-1.449-1.8-1.656-1.656" transform="translate(-615.455 -0.001)" fill="#f5cb3c"/>
  </g>
</svg>
